# xmcd
#
# Track frame offsets:
#	150
#	15135
#	32395
#	53227
#	68210
#	80412
#	94875
#	113360
#	129770
#	141945
#	159692
#	173930
#
# Disc length: 2491 seconds
# Revision: 0
# Processed by: cddbd v1.5.2PL0 Copyright (c) Steve Scherf et al.
# Submitted via: dBpowerAMP V12.0
#
DISCID=8b09b90c
DTITLE=David Davis and the Warrior River Boys - Troubled Times
DYEAR=2006
DGENRE=Country
TTITLE0=The Ballad of Sarah Malone
TTITLE1=Chancellorsville
TTITLE2=The River Ran Black
TTITLE3=Milwaukee Blues
TTITLE4=Jake Satterfield
TTITLE5=Filling the River with Tears
TTITLE6=Muddy Water
TTITLE7=(I Heard That) Lonesome Whistle
TTITLE8=John Henry, Jr
TTITLE9=Evening Prayer Blues
TTITLE10=Willow Valley
TTITLE11=A House of Gold
EXTD=
EXTT0=
EXTT1=
EXTT2=
EXTT3=
EXTT4=
EXTT5=
EXTT6=
EXTT7=
EXTT8=
EXTT9=
EXTT10=
EXTT11=
PLAYORDER=
